:SAMPLES-PER-SECOND 30
:FULLY-SPECIFIED
:DEGREES
462
root  38.3732 31.43 -69.2196 -167.078 50.1889 -174.83
RightUpLeg  -26.699 -11.3892 10.2772
RightLeg  42.8727 -3.93637 -3.23041
RightFoot  -14.9007 0.0996206 1.13939
RightToes  -21.6323 -0.0928911 -0.189815
Spine  8.04373 -0.942863 -0.578306
Spine1  14.8969 -1.27658 -3.19527
HEad  -19.2903 -34.2729 29.1007
LeftShoulder1  0 -2.42657e-020 -4.95415e-022
LeftArm  -36.0912 1.17039 -81.4737
LeftForeArm  40.2394 -21.0607 -3.87568
LeftHand  0.433647 -7.01747 -7.44073
RightShoulder  0 2.42657e-020 1.07489e-018
RightArm  -50.0244 3.68243 80.4329
RightForeArm  64.3293 9.6558 1.66528
RightHand  -0.320712 20.7177 -1.38479
LeftUpLeg  -23.17 -1.46045 8.78966
LeftLeg  68.7886 1.2145 2.60023
LeftFoot  0.891053 0.00117332 -0.150899
LeftToes  -25.2374 8.63562e-007 1.17448e-007
463
root  39.5807 32.0752 -69.5963 -166.867 51.9198 -175.717
RightUpLeg  -22.5819 -10.0955 9.85942
RightLeg  37.1293 -3.88607 -2.58019
RightFoot  -12.6937 0.0540685 0.863694
RightToes  -22.765 -0.0981998 -0.198673
Spine  8.07446 0.117972 -0.603914
Spine1  14.922 1.28872 -3.60179
HEad  -19.319 -34.2417 29.9727
LeftShoulder1  0 -2.42657e-020 -4.95415e-022
LeftArm  -37.3472 2.31646 -80.6824
LeftForeArm  40.5986 -20.6552 -3.7933
LeftHand  0.486745 -7.27542 -8.02241
RightShoulder  0 2.42657e-020 1.07489e-018
RightArm  -46.6296 4.90219 79.5662
RightForeArm  63.1232 10.8337 1.88169
RightHand  -0.217987 21.3062 -0.789046
LeftUpLeg  -30.3361 -4.59167 4.92066
LeftLeg  68.3983 1.70762 3.59518
LeftFoot  0.103804 1.97818e-005 -0.0218472
LeftToes  -23.5622 8.63562e-007 1.17448e-007
464
root  40.7964 32.5623 -70.0063 -167.208 53.8724 -176.99
RightUpLeg  -18.8782 -8.41097 9.15837
RightLeg  32.5922 -4.08852 -2.26563
RightFoot  -10.5472 0.0302978 0.70584
RightToes  -23.6319 -0.102616 -0.205363
Spine  8.26203 1.06089 -0.718042
Spine1  15.1878 3.72799 -4.35655
HEad  -17.9573 -33.5447 29.6362
LeftShoulder1  0 -2.42657e-020 -4.95415e-022
LeftArm  -38.4869 4.10481 -79.4001
LeftForeArm  40.9369 -21.4163 -3.9471
LeftHand  0.524107 -7.84265 -8.01167
RightShoulder  0 2.42657e-020 1.07489e-018
RightArm  -44.1033 7.53794 78.6115
RightForeArm  61.9957 10.8844 1.89353
RightHand  0.141618 21.7747 1.10661
LeftUpLeg  -36.5116 -7.45141 2.34075
LeftLeg  64.661 1.87359 3.36008
LeftFoot  -1.13471 0.000220675 0.0222756
LeftToes  -20.2551 8.63562e-007 1.17448e-007
465
root  42.1149 32.8625 -70.4704 -167.989 56.8441 -178.147
RightUpLeg  -15.0531 -5.50945 8.35988
RightLeg  29.1882 -4.45468 -2.12931
RightFoot  -8.95427 0.0194102 0.625492
RightToes  -24.2372 -0.104789 -0.209987
Spine  8.79791 2.0798 -0.930555
Spine1  15.9891 6.43168 -5.44083
HEad  -16.011 -32.08 28.546
LeftShoulder1  0 -2.42657e-020 -4.95415e-022
LeftArm  -41.4336 5.70752 -78.1142
LeftForeArm  41.9712 -22.2239 -4.11128
LeftHand  0.461459 -6.99437 -7.91779
RightShoulder  0 2.42657e-020 1.07489e-018
RightArm  -42.4363 11.174 78.0933
RightForeArm  60.819 10.9319 1.90484
RightHand  0.475934 22.0514 2.81307
LeftUpLeg  -40.4546 -8.76095 1.03668
LeftLeg  57.2785 1.96049 2.64687
LeftFoot  -2.52919 0.0038938 0.0206359
LeftToes  -18.3357 8.63562e-007 1.17448e-007
466
root  43.5208 32.9696 -70.9143 -168.806 60.2274 -178.856
RightUpLeg  -10.9477 -1.31177 8.09491
RightLeg  26.3241 -5.92122 -2.46801
RightFoot  -8.21642 0.0272155 0.756526
RightToes  -24.0222 -0.104997 -0.208349
Spine  9.53419 3.05648 -1.12857
Spine1  17.0326 9.2169 -6.77459
HEad  -13.2851 -30.0955 26.5076
LeftShoulder1  0 -2.42657e-020 -4.95415e-022
LeftArm  -43.981 7.84611 -76.4354
LeftForeArm  41.3161 -23.9909 -4.4813
LeftHand  0.426148 -6.33227 -8.07114
RightShoulder  0 2.42657e-020 1.07489e-018
RightArm  -38.9826 15.0133 78.0651
RightForeArm  59.0331 11.7801 2.06379
RightHand  0.656172 22.2153 3.71232
LeftUpLeg  -42.2242 -7.38755 0.489313
LeftLeg  46.6028 1.69515 1.56911
LeftFoot  -2.48059 0.00199329 0.0920569
LeftToes  -19.0333 8.63562e-007 1.17448e-007
467
root  44.9242 32.887 -71.2924 -167.598 63.65 -178.194
RightUpLeg  -7.82474 1.7462 8.56695
RightLeg  23.6908 -6.37434 -2.31715
RightFoot  -8.06495 0.0284857 0.781688
RightToes  -23.3665 -0.101009 -0.203323
Spine  9.7447 3.6022 -1.21711
Spine1  17.2031 10.924 -7.69264
HEad  -8.23424 -27.8659 22.4655
LeftShoulder1  0 -2.42657e-020 -4.95415e-022
LeftArm  -46.4206 11.6293 -74.9485
LeftForeArm  41.1824 -27.4218 -5.22993
LeftHand  0.455613 -6.1978 -8.78035
RightShoulder  0 2.42657e-020 1.07489e-018
RightArm  -34.6069 18.4395 78.8457
RightForeArm  57.7529 13.3812 2.36197
RightHand  0.42366 22.749 2.47642
LeftUpLeg  -43.2762 -4.19539 0.615462
LeftLeg  33.4792 1.4137 0.805178
LeftFoot  -2.20187 0.00171744 0.0893603
LeftToes  -21.4993 8.63562e-007 1.17448e-007
468
root  46.3801 32.6597 -71.6835 -164.7 66.6857 -176.072
RightUpLeg  -5.08238 4.04507 9.54298
RightLeg  21.5045 -6.74258 -2.1623
RightFoot  -8.5536 0.0369287 0.871428
RightToes  -22.4106 -0.0953004 -0.195916
Spine  9.66918 3.71635 -1.38855
Spine1  16.9818 11.4008 -8.30561
HEad  -3.34431 -24.759 19.8944
LeftShoulder1  0 -2.42657e-020 -4.95415e-022
LeftArm  -48.7505 15.9777 -73.4556
LeftForeArm  41.6471 -31.3672 -6.15241
LeftHand  0.4974 -6.11598 -9.67118
RightShoulder  0 2.42657e-020 1.07489e-018
RightArm  -29.2684 20.5788 80.4954
RightForeArm  54.6381 16.7787 3.00988
RightHand  0.177584 22.8801 1.24789
LeftUpLeg  -43.883 0.125818 0.447176
LeftLeg  22.4893 0.737885 0.248612
LeftFoot  -4.78298 -0.000942319 -0.0225722
LeftToes  -21.9401 8.63562e-007 1.17448e-007
469
root  47.8782 32.384 -72.1114 -161.283 69.4114 -173.199
RightUpLeg  -3.03635 7.42209 10.901
RightLeg  21.4956 -8.88949 -2.84229
RightFoot  -8.52068 0.0617411 1.20644
RightToes  -25.4531 -0.113896 -0.219155
Spine  9.62345 3.69267 -1.61431
Spine1  16.9031 11.3278 -8.65456
HEad  -0.541857 -21.6719 18.9266
LeftShoulder1  0 -2.42657e-020 -4.95415e-022
LeftArm  -50.2132 18.851 -71.8693
LeftForeArm  43.0271 -32.9578 -6.54528
LeftHand  0.477784 -5.86751 -9.6838
RightShoulder  0 2.42657e-020 1.07489e-018
RightArm  -23.4487 21.401 81.6508
RightForeArm  49.3853 21.7774 4.01006
RightHand  0.241778 23.1547 1.55061
LeftUpLeg  -43.7829 4.28489 -0.086448
LeftLeg  18.68 -3.07453 -0.82546
LeftFoot  -5.65671 0.0164591 0.333141
LeftToes  -22.4902 8.63562e-007 1.17448e-007
470
root  49.3874 32.1445 -72.6441 -160.56 71.9441 -172.911
RightUpLeg  -2.66882 7.04927 10.4095
RightLeg  25.0115 -8.20558 -3.19191
RightFoot  -8.21535 0.0567701 1.16813
RightToes  -32.1971 -0.159339 -0.266943
Spine  9.59742 3.54955 -2.12439
Spine1  16.7261 10.9691 -9.47461
HEad  1.41887 -19.4292 19.1537
LeftShoulder1  0 -2.42657e-020 -4.95415e-022
LeftArm  -51.5312 19.2986 -69.9299
LeftForeArm  44.658 -31.2107 -6.11005
LeftHand  0.386687 -5.42773 -8.52481
RightShoulder  0 2.42657e-020 1.07489e-018
RightArm  -18.4984 20.8209 82.4395
RightForeArm  45.1103 27.064 5.14662
RightHand  0.0593581 23.0998 0.660648
LeftUpLeg  -42.7818 2.79576 1.08377
LeftLeg  21.9378 -4.9782 -1.64223
LeftFoot  -8.07319 0.0527513 0.747498
LeftToes  -14.0832 8.63562e-007 1.17448e-007
471
root  50.8299 31.9394 -73.2174 -163.682 73.2413 -176.356
RightUpLeg  -5.08759 4.35578 8.39693
RightLeg  33.4753 -5.72065 -3.2775
RightFoot  -5.65126 0.0185706 0.753894
RightToes  -47.8971 -0.284439 -0.355251
Spine  9.8012 3.08732 -2.78142
Spine1  16.9046 10.0587 -10.7525
HEad  1.12494 -17.7916 21.6269
LeftShoulder1  0 -2.42657e-020 -4.95415e-022
LeftArm  -53.0492 16.5125 -67.3046
LeftForeArm  46.7244 -26.8882 -5.10252
LeftHand  0.492962 -5.6398 -10.3655
RightShoulder  0 2.42657e-020 1.07489e-018
RightArm  -15.6985 19.4404 83.2764
RightForeArm  42.138 31.6706 6.22899
RightHand  -0.365856 23.5865 -1.38251
LeftUpLeg  -43.0856 -0.971798 1.91958
LeftLeg  26.4171 -2.76744 -1.16225
LeftFoot  -5.26949 0.0172539 0.374932
LeftToes  -15.7083 8.63562e-007 1.17448e-007
472
root  52.3626 31.802 -73.8196 -168.544 73.5632 178.948
RightUpLeg  -9.74863 1.08395 6.31138
RightLeg  46.1283 -3.68583 -3.39917
RightFoot  1.18571 0.000941682 0.286376
RightToes  -57.0819 -0.367206 -0.390003
Spine  10.0584 2.8657 -3.41255
Spine1  17.3006 9.52209 -11.6965
HEad  1.49343 -18.5308 23.5429
LeftShoulder1  0 -2.42657e-020 -4.95415e-022
LeftArm  -50.5137 10.0374 -63.525
LeftForeArm  48.945 -17.9574 -3.24703
LeftHand  0.486381 -5.50406 -10.4754
RightShoulder  0 2.42657e-020 1.07489e-018
RightArm  -16.1339 17.4492 84.279
RightForeArm  39.9412 33.7285 6.74929
RightHand  -0.937912 23.1713 -4.20376
LeftUpLeg  -43.3419 -4.52928 1.84547
LeftLeg  32.0766 -3.03996 -1.64614
LeftFoot  -3.16155 0.0104231 0.377683
LeftToes  -15.8093 8.63562e-007 1.17448e-007
473
root  54.067 31.4753 -74.5043 -173.274 74.7317 175.857
RightUpLeg  -14.8707 -1.15503 4.68506
RightLeg  61.1641 -2.47799 -3.97268
RightFoot  8.48592 0.0280149 -6.36722e-005
RightToes  -40.3638 -0.221396 -0.317168
Spine  10.4532 2.84718 -3.91452
Spine1  17.8188 9.57872 -12.4505
HEad  6.11491 -19.8583 21.442
LeftShoulder1  0 -2.42657e-020 -4.95415e-022
LeftArm  -49.5541 3.21324 -61.1286
LeftForeArm  52.0083 -10.2272 -1.79408
LeftHand  0.403215 -5.28292 -9.10493
RightShoulder  0 2.42657e-020 1.07489e-018
RightArm  -16.5673 16.9204 85.5772
RightForeArm  39.5242 32.0723 6.33145
RightHand  -0.813654 22.6518 -3.69175
LeftUpLeg  -41.6863 -5.12598 0.855162
LeftLeg  37.4968 -3.53433 -2.36941
LeftFoot  0.378606 -0.00107201 0.324455
LeftToes  -19.6964 8.63562e-007 1.17448e-007
474
root  55.8061 31.0693 -75.1195 -176.034 76.363 175.033
RightUpLeg  -20.8029 -2.77926 4.27998
RightLeg  73.9427 -1.92549 -5.57047
RightFoot  13.197 0.101588 -0.500602
RightToes  -32.281 -0.15994 -0.267503
Spine  10.7989 2.57342 -4.08076
Spine1  18.3304 8.99322 -12.483
HEad  8.95417 -19.3979 19.6007
LeftShoulder1  0 -2.42657e-020 -4.95415e-022
LeftArm  -49.6796 -1.51884 -60.519
LeftForeArm  54.2884 -9.77412 -1.70788
LeftHand  0.363762 -5.23992 -8.31778
RightShoulder  0 2.42657e-020 1.07489e-018
RightArm  -16.8159 16.9963 86.7009
RightForeArm  40.3255 29.7507 5.76965
RightHand  -0.314349 23.3718 -1.15002
LeftUpLeg  -39.875 -3.08821 -0.215946
LeftLeg  44.094 -3.93797 -3.35258
LeftFoot  -4.87727 0.0341531 0.80192
LeftToes  -14.2251 8.63562e-007 1.17448e-007
475
root  57.5928 30.73 -75.7111 -178.54 77.3426 174.413
RightUpLeg  -26.4031 -4.79642 4.10405
RightLeg  81.6377 -0.498291 -2.77694
RightFoot  7.31706 0.00119719 0.358791
RightToes  -34.8217 -0.178494 -0.284042
Spine  11.2085 2.06454 -4.11337
Spine1  19.1822 7.55213 -11.6289
HEad  9.34671 -19.7942 19.372
LeftShoulder1  0 -2.42657e-020 -4.95415e-022
LeftArm  -46.4082 -6.25583 -60.7113
LeftForeArm  51.6413 -10.6079 -1.86382
LeftHand  0.345392 -5.12127 -8.09245
RightShoulder  0 2.42657e-020 1.07489e-018
RightArm  -17.1165 16.4297 86.6149
RightForeArm  41.5834 28.4161 5.45779
RightHand  -0.0860979 24.3326 -0.0293493
LeftUpLeg  -36.8851 -1.38162 -0.98498
LeftLeg  48.6688 -4.15402 -4.14836
LeftFoot  -10.3734 0.125028 1.3773
LeftToes  -13.4798 8.63562e-007 1.17448e-007
